# xmcd
#
# Track frame offsets: 
#        150
#        22090
#        52193
#        69937
#        92855
#        105554
#        123502
#        146580
#        167498
#        183726
#        193497
#        213218
#        235152
#        251252
#        266734
#        287198
#        305774
#        335424
#
# Disc length: 4680 seconds
#
# Revision: 1
# Processed by: cddbd v1.5.2PL0 Copyright (c) Steve Scherf et al.
# Submitted via: ExactAudioCopy v1.0b3
#
DISCID=18124612
DTITLE=Julian Fauth - Ramblin' Son
DYEAR=2008
DGENRE=Blues
TTITLE0=Maggie Campbell
TTITLE1=Roll On In
TTITLE2=Hopeless Love Affair
TTITLE3=The Man On The Box
TTITLE4=East Toronto Nervous Breakdown
TTITLE5=Just Like Him
TTITLE6=Will The Circle Be Unbroken
TTITLE7=Lowlands
TTITLE8=I Won't Be Mistreated
TTITLE9=Little Girl Dream
TTITLE10=Human Love
TTITLE11=Yet Another Stagger Lee
TTITLE12=Cubist Blues
TTITLE13=Done Got Over That
TTITLE14=Burnin' DOwn
TTITLE15=Ramblin' Son
TTITLE16=Watin' Time
TTITLE17=Can't No Grave Hold My Body Down
EXTD=
EXTT0=
EXTT1=
EXTT2=
EXTT3=
EXTT4=
EXTT5=
EXTT6=
EXTT7=
EXTT8=
EXTT9=
EXTT10=
EXTT11=
EXTT12=
EXTT13=
EXTT14=
EXTT15=
EXTT16=
EXTT17=
PLAYORDER=
